# xmcd CD database file
#
# Track frame offsets:
#	150
#	21632
#	39532
#	60674
#	75793
#	108666
#	125118
#	145144
#	161246
#	179832
#	201474
#	225269
#	244204
#	260709
#	275875
#	292164
#	310810
#	327925
#	345799
#
# Disc length: 4799 seconds
#
# Revision: 0
# Processed by: cddbd v1.5.1PL0 Copyright (c) Steve Scherf et al.
# Submitted via: CDex 1.51
#
DISCID=2b12bd13
DTITLE=Various Artist - hinter dem horizont
DYEAR=1900
DGENRE=Blues
TTITLE0=vera kaa and polo hofer - chrüzwäg
TTITLE1=udo lindenberg - horizont
TTITLE2=westernhagen - es geht mir gut
TTITLE3=züri west - redt si no vo mir
TTITLE4=the symbol - gold
TTITLE5=massive attack - heat miser
TTITLE6=subway - it's only mistery
TTITLE7=bette midler - beast of burden
TTITLE8=iggy pop - candy
TTITLE9=lenny kravitz - black velveteen
TTITLE10=soundgarden - black hole sun
TTITLE11=janis joplin - piece of my heart
TTITLE12=züri west - echo
TTITLE13=chris de burgh - don't pay the ferryman
TTITLE14=westernhagen - engel
TTITLE15=lou reed - walk on the wild side
TTITLE16=tom waits - downtown train
TTITLE17=selig - knocki'n on heaven's door
TTITLE18=massive attack - light my fire
EXTD=
EXTT0=
EXTT1=
EXTT2=
EXTT3=
EXTT4=
EXTT5=
EXTT6=
EXTT7=
EXTT8=
EXTT9=
EXTT10=
EXTT11=
EXTT12=
EXTT13=
EXTT14=
EXTT15=
EXTT16=
EXTT17=
EXTT18=
PLAYORDER=
